<svg width="25" height="24" viewBox="0 0 25 24" fill="none" xmlns="http://www.w3.org/2000/svg">
<path fill-rule="evenodd" clip-rule="evenodd" d="M9.63229 4.20845C10.0742 4.21411 10.4601 4.52124 10.5815 4.96387L13.6924 16.3056L16.8763 9.30412C17.0213 8.98519 17.3115 8.76443 17.6473 8.71759C17.9831 8.67075 18.3188 8.80419 18.5393 9.07213L21.1199 12.2084H24.5V14.2917H20.66C20.3681 14.2917 20.0907 14.1588 19.9007 13.9279L18.0239 11.647L14.3637 19.696C14.1855 20.0878 13.7929 20.3237 13.3781 20.2882C12.9632 20.2527 12.6128 19.9531 12.4985 19.5362L9.5771 8.88535L8.17448 13.5607C8.04402 13.9956 7.65738 14.2917 7.22 14.2917H0.5V12.2084H6.48481L8.66552 4.93934C8.79734 4.49995 9.1904 4.20279 9.63229 4.20845Z" fill="#05647A"/>
</svg>
