<svg width="24" height="24" viewBox="0 0 24 24" fill="none" xmlns="http://www.w3.org/2000/svg">
<path fill-rule="evenodd" clip-rule="evenodd" d="M9.13229 4.20845C9.57419 4.21411 9.96012 4.52124 10.0815 4.96387L13.1924 16.3056L16.3763 9.30412C16.5213 8.98519 16.8115 8.76443 17.1473 8.71759C17.4831 8.67075 17.8188 8.80419 18.0393 9.07213L20.6199 12.2084H24V14.2917H20.16C19.8681 14.2917 19.5907 14.1588 19.4007 13.9279L17.5239 11.647L13.8637 19.696C13.6855 20.0878 13.2929 20.3237 12.8781 20.2882C12.4632 20.2527 12.1128 19.9531 11.9985 19.5362L9.0771 8.88535L7.67448 13.5607C7.54402 13.9956 7.15738 14.2917 6.72 14.2917H0V12.2084H5.98481L8.16552 4.93934C8.29734 4.49995 8.6904 4.20279 9.13229 4.20845Z" fill="#EAA92A"/>
</svg>
