<svg width="42" height="41" viewBox="0 0 42 41" fill="none" xmlns="http://www.w3.org/2000/svg">
<circle cx="20.6606" cy="20.4407" r="19.9407" stroke="#10375D"/>
<path fill-rule="evenodd" clip-rule="evenodd" d="M12.9978 27.0964C12.998 27.0963 12.9982 27.0962 12.7115 26.6865C12.4247 26.2769 12.425 26.2768 12.4252 26.2766L12.4257 26.2763L12.4269 26.2754L12.4299 26.2733L12.4388 26.2673C12.4459 26.2625 12.4554 26.2561 12.4674 26.2484C12.4914 26.2328 12.5251 26.2114 12.5688 26.1851C12.6561 26.1324 12.7833 26.06 12.9514 25.9746C13.2877 25.8037 13.7878 25.5809 14.4618 25.3598C15.8104 24.9173 17.8503 24.4832 20.6606 24.4832C23.4709 24.4832 25.5109 24.9173 26.8595 25.3598C27.5334 25.5809 28.0335 25.8037 28.3698 25.9746C28.538 26.06 28.6651 26.1324 28.7525 26.1851C28.7961 26.2114 28.8299 26.2328 28.8538 26.2484C28.8658 26.2561 28.8753 26.2625 28.8824 26.2673L28.8913 26.2733L28.8943 26.2754L28.8955 26.2763L28.896 26.2766C28.8963 26.2768 28.8965 26.2769 28.6098 26.6865C28.323 27.0962 28.3232 27.0963 28.3234 27.0964L28.3238 27.0967L28.3228 27.096L28.3084 27.0865C28.294 27.0771 28.27 27.0619 28.2364 27.0416C28.1692 27.0011 28.0631 26.9404 27.9169 26.8662C27.6246 26.7176 27.1716 26.5146 26.5477 26.3099C25.3007 25.9007 23.366 25.4832 20.6606 25.4832C17.9552 25.4832 16.0205 25.9007 14.7735 26.3099C14.1496 26.5146 13.6966 26.7176 13.4043 26.8662C13.2582 26.9404 13.1521 27.0011 13.0848 27.0416C13.0512 27.0619 13.0273 27.0771 13.0129 27.0865L12.9984 27.096L12.9978 27.0964ZM12.9978 27.0964L12.9965 27.0973C12.9965 27.0973 12.9967 27.0972 12.9969 27.097L12.9975 27.0967L12.9978 27.0964Z" fill="#10375D"/>
<path fill-rule="evenodd" clip-rule="evenodd" d="M14.9256 22.6547L9.30469 17.0338L10.0118 16.3267L15.6327 21.9476L14.9256 22.6547Z" fill="#10375D"/>
<path fill-rule="evenodd" clip-rule="evenodd" d="M16.0612 17.0338L10.4403 22.6547L9.73317 21.9476L15.3541 16.3267L16.0612 17.0338Z" fill="#10375D"/>
<path fill-rule="evenodd" clip-rule="evenodd" d="M30.8239 22.6547L25.203 17.0338L25.9101 16.3267L31.531 21.9476L30.8239 22.6547Z" fill="#10375D"/>
<path fill-rule="evenodd" clip-rule="evenodd" d="M31.9595 17.0338L26.3386 22.6547L25.6315 21.9476L31.2524 16.3267L31.9595 17.0338Z" fill="#10375D"/>
</svg>
