<svg width="42" height="41" viewBox="0 0 42 41" fill="none" xmlns="http://www.w3.org/2000/svg">
<circle cx="20.7793" cy="20.4407" r="20.4407" fill="#10375D"/>
<path fill-rule="evenodd" clip-rule="evenodd" d="M13.1164 27.0964C13.1166 27.0963 13.1168 27.0962 12.8301 26.6865C12.5434 26.2769 12.5436 26.2768 12.5438 26.2766L12.5443 26.2763L12.5455 26.2754L12.5486 26.2733L12.5574 26.2673C12.5645 26.2625 12.5741 26.2561 12.5861 26.2484C12.61 26.2328 12.6437 26.2114 12.6874 26.1851C12.7748 26.1324 12.9019 26.06 13.07 25.9746C13.4064 25.8037 13.9065 25.5809 14.5804 25.3598C15.929 24.9173 17.969 24.4832 20.7793 24.4832C23.5896 24.4832 25.6295 24.9173 26.9781 25.3598C27.6521 25.5809 28.1522 25.8037 28.4885 25.9746C28.6566 26.06 28.7837 26.1324 28.8711 26.1851C28.9148 26.2114 28.9485 26.2328 28.9725 26.2484C28.9845 26.2561 28.994 26.2625 29.0011 26.2673L29.0099 26.2733L29.013 26.2754L29.0142 26.2763L29.0147 26.2766C29.0149 26.2768 29.0152 26.2769 28.7284 26.6865C28.4417 27.0962 28.4419 27.0963 28.4421 27.0964L28.4424 27.0967L28.4414 27.096L28.427 27.0865C28.4126 27.0771 28.3887 27.0619 28.3551 27.0416C28.2878 27.0011 28.1817 26.9404 28.0355 26.8662C27.7432 26.7176 27.2903 26.5146 26.6664 26.3099C25.4193 25.9007 23.4847 25.4832 20.7793 25.4832C18.0738 25.4832 16.1392 25.9007 14.8922 26.3099C14.2683 26.5146 13.8153 26.7176 13.523 26.8662C13.3768 26.9404 13.2707 27.0011 13.2035 27.0416C13.1698 27.0619 13.1459 27.0771 13.1315 27.0865L13.1171 27.096L13.1164 27.0964ZM13.1164 27.0964L13.1152 27.0973C13.1152 27.0973 13.1153 27.0972 13.1156 27.097L13.1161 27.0967L13.1164 27.0964Z" fill="#FFFFFD"/>
<path fill-rule="evenodd" clip-rule="evenodd" d="M15.0442 22.6547L9.42334 17.0338L10.1304 16.3267L15.7513 21.9476L15.0442 22.6547Z" fill="#FFFFFD"/>
<path fill-rule="evenodd" clip-rule="evenodd" d="M16.1798 17.0338L10.5589 22.6547L9.85182 21.9476L15.4727 16.3267L16.1798 17.0338Z" fill="#FFFFFD"/>
<path fill-rule="evenodd" clip-rule="evenodd" d="M30.9426 22.6547L25.3217 17.0338L26.0288 16.3267L31.6497 21.9476L30.9426 22.6547Z" fill="#FFFFFD"/>
<path fill-rule="evenodd" clip-rule="evenodd" d="M32.0782 17.0338L26.4573 22.6547L25.7501 21.9476L31.371 16.3267L32.0782 17.0338Z" fill="#FFFFFD"/>
</svg>
