<svg width="42" height="41" viewBox="0 0 42 41" fill="none" xmlns="http://www.w3.org/2000/svg">
<circle cx="20.9996" cy="20.5593" r="19.9407" stroke="#05647A"/>
<path fill-rule="evenodd" clip-rule="evenodd" d="M13.3368 26.6472C13.337 26.6471 13.3372 26.6469 13.0505 26.2373C12.7637 25.8277 12.7639 25.8276 12.7642 25.8274L12.7647 25.827L12.7659 25.8262L12.7689 25.8241L12.7778 25.8181C12.7849 25.8133 12.7944 25.8069 12.8064 25.7991C12.8303 25.7835 12.8641 25.7622 12.9078 25.7359C12.9951 25.6832 13.1222 25.6108 13.2904 25.5254C13.6267 25.3545 14.1268 25.1317 14.8007 24.9106C16.1494 24.468 18.1893 24.0339 20.9996 24.0339C23.8099 24.0339 25.8498 24.468 27.1985 24.9106C27.8724 25.1317 28.3725 25.3545 28.7088 25.5254C28.877 25.6108 29.0041 25.6832 29.0914 25.7359C29.1351 25.7622 29.1689 25.7835 29.1928 25.7991C29.2048 25.8069 29.2143 25.8133 29.2214 25.8181L29.2303 25.8241L29.2333 25.8262L29.2345 25.827L29.235 25.8274C29.2353 25.8276 29.2355 25.8277 28.9488 26.2373C28.662 26.6469 28.6622 26.6471 28.6624 26.6472L28.6628 26.6475L28.6618 26.6468L28.6473 26.6373C28.633 26.6279 28.609 26.6127 28.5754 26.5924C28.5081 26.5519 28.4021 26.4912 28.2559 26.4169C27.9636 26.2684 27.5106 26.0654 26.8867 25.8607C25.6397 25.4515 23.705 25.0339 20.9996 25.0339C18.2942 25.0339 16.3595 25.4515 15.1125 25.8607C14.4886 26.0654 14.0356 26.2684 13.7433 26.4169C13.5971 26.4912 13.4911 26.5519 13.4238 26.5924C13.3902 26.6127 13.3662 26.6279 13.3519 26.6373L13.3374 26.6468L13.3368 26.6472ZM13.3368 26.6472L13.3355 26.6481C13.3355 26.6481 13.3356 26.648 13.3359 26.6478L13.3364 26.6475L13.3368 26.6472Z" fill="#05647A"/>
<path d="M17.5929 19.4236C17.5929 21.3051 16.3218 22.8304 14.7539 22.8304C13.186 22.8304 11.9149 21.3051 11.9149 19.4236C11.9149 17.5421 13.186 16.0168 14.7539 16.0168C16.3218 16.0168 17.5929 17.5421 17.5929 19.4236Z" fill="#05647A"/>
<path d="M30.0844 19.4236C30.0844 21.3051 28.8133 22.8304 27.2454 22.8304C25.6775 22.8304 24.4064 21.3051 24.4064 19.4236C24.4064 17.5421 25.6775 16.0168 27.2454 16.0168C28.8133 16.0168 30.0844 17.5421 30.0844 19.4236Z" fill="#05647A"/>
</svg>
