<svg width="41" height="41" viewBox="0 0 41 41" fill="none" xmlns="http://www.w3.org/2000/svg">
<circle cx="20.4407" cy="20.4407" r="20.4407" fill="#05647A"/>
<path fill-rule="evenodd" clip-rule="evenodd" d="M12.7779 26.5286C12.7781 26.5284 12.7783 26.5283 12.4916 26.1187C12.2049 25.7091 12.2051 25.7089 12.2053 25.7087L12.2058 25.7084L12.207 25.7076L12.2101 25.7054L12.2189 25.6994C12.226 25.6946 12.2356 25.6883 12.2475 25.6805C12.2715 25.6649 12.3052 25.6435 12.3489 25.6172C12.4363 25.5646 12.5634 25.4922 12.7315 25.4068C13.0679 25.2359 13.568 25.013 14.2419 24.7919C15.5905 24.3494 17.6305 23.9153 20.4408 23.9153C23.2511 23.9153 25.291 24.3494 26.6396 24.7919C27.3136 25.013 27.8137 25.2359 28.15 25.4068C28.3181 25.4922 28.4452 25.5646 28.5326 25.6172C28.5763 25.6435 28.61 25.6649 28.634 25.6805C28.646 25.6883 28.6555 25.6946 28.6626 25.6994L28.6714 25.7054L28.6745 25.7076L28.6757 25.7084L28.6762 25.7087C28.6764 25.7089 28.6766 25.7091 28.3899 26.1187C28.1032 26.5283 28.1034 26.5284 28.1036 26.5286L28.1039 26.5288L28.1029 26.5282L28.0885 26.5186C28.0741 26.5092 28.0502 26.494 28.0166 26.4738C27.9493 26.4332 27.8432 26.3726 27.697 26.2983C27.4047 26.1498 26.9518 25.9468 26.3279 25.7421C25.0808 25.3329 23.1462 24.9153 20.4408 24.9153C17.7353 24.9153 15.8007 25.3329 14.5537 25.7421C13.9298 25.9468 13.4768 26.1498 13.1845 26.2983C13.0383 26.3726 12.9322 26.4332 12.865 26.4738C12.8313 26.494 12.8074 26.5092 12.793 26.5186L12.7786 26.5282L12.7779 26.5286ZM12.7779 26.5286L12.7767 26.5294C12.7767 26.5294 12.7768 26.5294 12.7771 26.5292L12.7776 26.5288L12.7779 26.5286Z" fill="#FFFFFD"/>
<path d="M17.0339 19.305C17.0339 21.1865 15.7629 22.7118 14.1949 22.7118C12.627 22.7118 11.356 21.1865 11.356 19.305C11.356 17.4235 12.627 15.8982 14.1949 15.8982C15.7629 15.8982 17.0339 17.4235 17.0339 19.305Z" fill="#FFFFFD"/>
<path d="M29.5254 19.305C29.5254 21.1865 28.2543 22.7118 26.6864 22.7118C25.1185 22.7118 23.8474 21.1865 23.8474 19.305C23.8474 17.4235 25.1185 15.8982 26.6864 15.8982C28.2543 15.8982 29.5254 17.4235 29.5254 19.305Z" fill="#FFFFFD"/>
</svg>
