<svg width="41" height="42" viewBox="0 0 41 42" fill="none" xmlns="http://www.w3.org/2000/svg">
<circle cx="20.559" cy="20.7966" r="20.4407" fill="#8FC026"/>
<path fill-rule="evenodd" clip-rule="evenodd" d="M12.1693 23.3043C12.1692 23.3041 12.1691 23.3039 12.6098 23.0678C13.0505 22.8317 13.0505 22.8315 13.0504 22.8313L13.0541 22.8381C13.0576 22.8444 13.0635 22.8549 13.0717 22.8692C13.0882 22.8978 13.1141 22.9417 13.1496 22.9987C13.2207 23.1129 13.3299 23.2793 13.4785 23.4806C13.776 23.8837 14.2288 24.4233 14.8452 24.9627C16.0756 26.0392 17.9503 27.1101 20.559 27.1101C23.1676 27.1101 25.0424 26.0392 26.2727 24.9627C26.8892 24.4233 27.3419 23.8837 27.6394 23.4806C27.788 23.2793 27.8972 23.1129 27.9683 22.9987C28.0038 22.9417 28.0297 22.8978 28.0462 22.8692C28.0544 22.8549 28.0603 22.8444 28.0638 22.8381L28.0674 22.8317C28.0673 22.8318 28.0674 22.8317 28.5081 23.0678C28.9489 23.3039 28.9487 23.3041 28.9486 23.3043L28.9475 23.3063L28.9453 23.3104L28.9381 23.3235C28.9321 23.3344 28.9236 23.3494 28.9127 23.3684C28.8908 23.4063 28.8591 23.46 28.8173 23.5272C28.7337 23.6614 28.6098 23.8499 28.444 24.0744C28.1129 24.523 27.6125 25.1191 26.9312 25.7152C25.5659 26.9099 23.4661 28.1101 20.559 28.1101C17.6519 28.1101 15.552 26.9099 14.1867 25.7152C13.5054 25.1191 13.005 24.523 12.6739 24.0744C12.5082 23.8499 12.3842 23.6614 12.3007 23.5272C12.2589 23.46 12.2271 23.4063 12.2053 23.3684C12.1943 23.3494 12.1859 23.3344 12.1798 23.3235L12.1726 23.3104L12.1704 23.3063L12.1693 23.3043Z" fill="#FFFFFD"/>
<path fill-rule="evenodd" clip-rule="evenodd" d="M13.7454 16.7542C12.14 16.7542 10.8386 18.0556 10.8386 19.6609H9.83862C9.83862 17.5033 11.5877 15.7542 13.7454 15.7542C15.9031 15.7542 17.6522 17.5033 17.6522 19.6609H16.6522C16.6522 18.0556 15.3508 16.7542 13.7454 16.7542Z" fill="#FFFFFD"/>
<path fill-rule="evenodd" clip-rule="evenodd" d="M27.3725 16.7542C25.7672 16.7542 24.4658 18.0556 24.4658 19.6609H23.4658C23.4658 17.5033 25.2149 15.7542 27.3725 15.7542C29.5302 15.7542 31.2793 17.5033 31.2793 19.6609H30.2793C30.2793 18.0556 28.9779 16.7542 27.3725 16.7542Z" fill="#FFFFFD"/>
</svg>
