<svg width="41" height="42" viewBox="0 0 41 42" fill="none" xmlns="http://www.w3.org/2000/svg">
<circle cx="20.4403" cy="20.7966" r="19.9407" stroke="#8FC026"/>
<path fill-rule="evenodd" clip-rule="evenodd" d="M12.0507 23.3043C12.0505 23.3041 12.0504 23.3039 12.4912 23.0678C12.9319 22.8317 12.9318 22.8315 12.9317 22.8313L12.9354 22.8381C12.939 22.8444 12.9448 22.8549 12.9531 22.8692C12.9695 22.8978 12.9955 22.9417 13.031 22.9987C13.102 23.1129 13.2113 23.2793 13.3598 23.4806C13.6574 23.8837 14.1101 24.4233 14.7266 24.9627C15.9569 26.0392 17.8317 27.1101 20.4403 27.1101C23.049 27.1101 24.9237 26.0392 26.154 24.9627C26.7705 24.4233 27.2232 23.8837 27.5208 23.4806C27.6693 23.2793 27.7786 23.1129 27.8496 22.9987C27.8852 22.9417 27.9111 22.8978 27.9276 22.8692C27.9358 22.8549 27.9417 22.8444 27.9452 22.8381L27.9487 22.8317C27.9486 22.8318 27.9487 22.8317 28.3895 23.0678C28.8302 23.3039 28.8301 23.3041 28.83 23.3043L28.8289 23.3063L28.8266 23.3104L28.8194 23.3235C28.8134 23.3344 28.805 23.3494 28.794 23.3684C28.7722 23.4063 28.7404 23.46 28.6986 23.5272C28.6151 23.6614 28.4911 23.8499 28.3253 24.0744C27.9943 24.523 27.4939 25.1191 26.8125 25.7152C25.4472 26.9099 23.3474 28.1101 20.4403 28.1101C17.5332 28.1101 15.4334 26.9099 14.0681 25.7152C13.3867 25.1191 12.8864 24.523 12.5553 24.0744C12.3895 23.8499 12.2656 23.6614 12.182 23.5272C12.1402 23.46 12.1085 23.4063 12.0866 23.3684C12.0757 23.3494 12.0672 23.3344 12.0612 23.3235L12.054 23.3104L12.0517 23.3063L12.0507 23.3043Z" fill="#8FC026"/>
<path fill-rule="evenodd" clip-rule="evenodd" d="M13.6268 16.7542C12.0214 16.7542 10.72 18.0556 10.72 19.6609H9.71997C9.71997 17.5033 11.4691 15.7542 13.6268 15.7542C15.7844 15.7542 17.5335 17.5033 17.5335 19.6609H16.5335C16.5335 18.0556 15.2321 16.7542 13.6268 16.7542Z" fill="#8FC026"/>
<path fill-rule="evenodd" clip-rule="evenodd" d="M27.2539 16.7542C25.6485 16.7542 24.3471 18.0556 24.3471 19.6609H23.3471C23.3471 17.5033 25.0962 15.7542 27.2539 15.7542C29.4115 15.7542 31.1607 17.5033 31.1607 19.6609H30.1607C30.1607 18.0556 28.8593 16.7542 27.2539 16.7542Z" fill="#8FC026"/>
</svg>
