<svg width="42" height="42" viewBox="0 0 42 42" fill="none" xmlns="http://www.w3.org/2000/svg">
<circle cx="21.22" cy="20.678" r="19.9407" stroke="#47C6CB"/>
<path fill-rule="evenodd" clip-rule="evenodd" d="M13.2708 26.856V25.856H29.1691V26.856H13.2708Z" fill="#47C6CB"/>
<path d="M17.8132 19.5423C17.8132 21.4238 16.5422 22.9491 14.9742 22.9491C13.4063 22.9491 12.1353 21.4238 12.1353 19.5423C12.1353 17.6608 13.4063 16.1355 14.9742 16.1355C16.5422 16.1355 17.8132 17.6608 17.8132 19.5423Z" fill="#47C6CB"/>
<path d="M30.3047 19.5423C30.3047 21.4238 29.0336 22.9491 27.4657 22.9491C25.8978 22.9491 24.6267 21.4238 24.6267 19.5423C24.6267 17.6608 25.8978 16.1355 27.4657 16.1355C29.0336 16.1355 30.3047 17.6608 30.3047 19.5423Z" fill="#47C6CB"/>
</svg>
