<svg width="41" height="41" viewBox="0 0 41 41" fill="none" xmlns="http://www.w3.org/2000/svg">
<circle cx="20.4407" cy="20.4407" r="20.4407" fill="#47C6CB"/>
<path fill-rule="evenodd" clip-rule="evenodd" d="M12.4915 26.6187V25.6187H28.3898V26.6187H12.4915Z" fill="#FFFFFD"/>
<path d="M17.0339 19.305C17.0339 21.1865 15.7629 22.7118 14.1949 22.7118C12.627 22.7118 11.356 21.1865 11.356 19.305C11.356 17.4235 12.627 15.8982 14.1949 15.8982C15.7629 15.8982 17.0339 17.4235 17.0339 19.305Z" fill="#FFFFFD"/>
<path d="M29.5254 19.305C29.5254 21.1865 28.2543 22.7118 26.6864 22.7118C25.1185 22.7118 23.8474 21.1865 23.8474 19.305C23.8474 17.4235 25.1185 15.8982 26.6864 15.8982C28.2543 15.8982 29.5254 17.4235 29.5254 19.305Z" fill="#FFFFFD"/>
</svg>
