<svg width="42" height="42" viewBox="0 0 42 42" fill="none" xmlns="http://www.w3.org/2000/svg">
<circle cx="20.6606" cy="20.9153" r="19.9407" stroke="#EAA92A"/>
<path fill-rule="evenodd" clip-rule="evenodd" d="M29.881 21.9153H11.4403V22.0509C11.4403 27.1431 15.5684 31.2712 20.6606 31.2712C25.7529 31.2712 29.881 27.1431 29.881 22.0509V21.9153ZM10.4403 20.9153V22.0509C10.4403 27.6954 15.0161 32.2712 20.6606 32.2712C26.3052 32.2712 30.881 27.6954 30.881 22.0509V20.9153H10.4403Z" fill="#EAA92A"/>
<path fill-rule="evenodd" clip-rule="evenodd" d="M13.8471 15.7375C12.2417 15.7375 10.9403 17.039 10.9403 18.6443H9.94031C9.94031 16.4867 11.6894 14.7375 13.8471 14.7375C16.0047 14.7375 17.7539 16.4867 17.7539 18.6443H16.7539C16.7539 17.039 15.4525 15.7375 13.8471 15.7375Z" fill="#EAA92A"/>
<path fill-rule="evenodd" clip-rule="evenodd" d="M27.4742 15.7375C25.8689 15.7375 24.5674 17.039 24.5674 18.6443H23.5674C23.5674 16.4867 25.3166 14.7375 27.4742 14.7375C29.6319 14.7375 31.381 16.4867 31.381 18.6443H30.381C30.381 17.039 29.0796 15.7375 27.4742 15.7375Z" fill="#EAA92A"/>
</svg>
