<svg width="42" height="42" viewBox="0 0 42 42" fill="none" xmlns="http://www.w3.org/2000/svg">
<circle cx="20.7793" cy="20.9153" r="20.4407" fill="#EAA92A"/>
<path fill-rule="evenodd" clip-rule="evenodd" d="M29.9996 21.9153H11.559V22.0509C11.559 27.1431 15.687 31.2712 20.7793 31.2712C25.8716 31.2712 29.9996 27.1431 29.9996 22.0509V21.9153ZM10.559 20.9153V22.0509C10.559 27.6954 15.1348 32.2712 20.7793 32.2712C26.4238 32.2712 30.9996 27.6954 30.9996 22.0509V20.9153H10.559Z" fill="#FFFFFD"/>
<path fill-rule="evenodd" clip-rule="evenodd" d="M13.9657 15.7375C12.3604 15.7375 11.059 17.039 11.059 18.6443H10.059C10.059 16.4867 11.8081 14.7375 13.9657 14.7375C16.1234 14.7375 17.8725 16.4867 17.8725 18.6443H16.8725C16.8725 17.039 15.5711 15.7375 13.9657 15.7375Z" fill="#FFFFFD"/>
<path fill-rule="evenodd" clip-rule="evenodd" d="M27.5929 15.7375C25.9875 15.7375 24.6861 17.039 24.6861 18.6443H23.6861C23.6861 16.4867 25.4352 14.7375 27.5929 14.7375C29.7505 14.7375 31.4997 16.4867 31.4997 18.6443H30.4997C30.4997 17.039 29.1982 15.7375 27.5929 15.7375Z" fill="#FFFFFD"/>
</svg>
