<svg width="24" height="24" viewBox="0 0 24 24" fill="none" xmlns="http://www.w3.org/2000/svg">
<path d="M12 22.0001C10.75 22.0001 9.57898 21.7624 8.48698 21.2871C7.39498 20.8118 6.44498 20.1704 5.63698 19.3631C4.82898 18.5544 4.18764 17.6044 3.71298 16.5131C3.23831 15.4218 3.00064 14.2508 2.99998 13.0001C2.99998 11.7501 3.23764 10.5791 3.71298 9.4871C4.18831 8.3951 4.82964 7.4451 5.63698 6.6371C6.44564 5.8291 7.39564 5.18776 8.48698 4.7131C9.57831 4.23843 10.7493 4.00076 12 4.0001C13.25 4.0001 14.421 4.23776 15.513 4.7131C16.605 5.18843 17.555 5.8301 18.363 6.6381C19.171 7.4461 19.8126 8.3961 20.288 9.4881C20.7633 10.5801 21.0006 11.7508 21 13.0001C21 14.2501 20.7623 15.4211 20.287 16.5131C19.8116 17.6051 19.1703 18.5551 18.363 19.3631C17.5543 20.1711 16.6043 20.8128 15.513 21.2881C14.4216 21.7634 13.2506 22.0008 12 22.0001ZM14.8 17.2001L16.2 15.8001L13 12.6001V8.0001H11V13.4001L14.8 17.2001ZM5.59998 2.3501L6.99998 3.7501L2.74998 8.0001L1.34998 6.6001L5.59998 2.3501ZM18.4 2.3501L22.65 6.6001L21.25 8.0001L17 3.7501L18.4 2.3501ZM12 20.0001C13.95 20.0001 15.6043 19.3208 16.963 17.9621C18.3216 16.6034 19.0006 14.9494 19 13.0001C19 11.0501 18.3206 9.39576 16.962 8.0371C15.6033 6.67843 13.9493 5.99943 12 6.0001C10.05 6.0001 8.39564 6.67943 7.03698 8.0381C5.67831 9.39676 4.99931 11.0508 4.99998 13.0001C4.99998 14.9501 5.67931 16.6044 7.03798 17.9631C8.39664 19.3218 10.0506 20.0008 12 20.0001Z" fill="black"/>
</svg>
