<svg width="33" height="32" viewBox="0 0 33 32" fill="none" xmlns="http://www.w3.org/2000/svg">
<path fill-rule="evenodd" clip-rule="evenodd" d="M6.07115 13.4512C7.20563 10.5312 9.53117 8.20564 12.4513 7.0712C11.6274 5.82331 10.2125 5 8.60526 5C6.06185 5 4 7.06185 4 9.60526C4 11.2125 4.8233 12.6274 6.07115 13.4512ZM26.9288 13.4512C28.1767 12.6274 29 11.2125 29 9.60526C29 7.06185 26.9382 5 24.3947 5C22.7875 5 21.3726 5.82332 20.5487 7.0712C23.4688 8.20566 25.7944 10.5312 26.9288 13.4512Z" fill="#6DB8BB"/>
<path fill-rule="evenodd" clip-rule="evenodd" d="M16.5598 27.7273C22.1751 27.7273 26.7273 23.1751 26.7273 17.5598C26.7273 11.9445 22.1751 7.39233 16.5598 7.39233C10.9445 7.39233 6.39233 11.9445 6.39233 17.5598C6.39233 23.1751 10.9445 27.7273 16.5598 27.7273ZM21.3677 13.621C21.8915 14.0235 21.9898 14.7745 21.5872 15.2983L17.6358 20.44C17.5161 20.5957 17.3657 20.7138 17.1996 20.7923C16.7393 21.0349 16.1562 20.9555 15.7784 20.561L12.7055 17.3529C12.2486 16.8758 12.2649 16.1186 12.742 15.6616C13.219 15.2047 13.9762 15.221 14.4332 15.6981L16.558 17.9164L19.6903 13.8405C20.0929 13.3167 20.8438 13.2184 21.3677 13.621Z" fill="#6DB8BB"/>
</svg>
