<svg width="24" height="24" viewBox="0 0 24 24" fill="none" xmlns="http://www.w3.org/2000/svg">
<path d="M15.3364 12.6823V17.7175C15.3364 19.0772 14.2317 20.1794 12.8691 20.1794H6.28969C4.92706 20.1794 3.82242 19.0772 3.82242 17.7175V11.1526C3.82242 9.793 4.92706 8.6908 6.28969 8.6908H9.84513L10.6676 7.87019H6.28969C4.47285 7.87019 3 9.33979 3 11.1526V17.7175C3 19.5304 4.47285 21 6.28969 21H12.8691C14.6859 21 16.1588 19.5304 16.1588 17.7175V11.8616L15.3364 12.6823Z" fill="black"/>
<path d="M6.38938 16.7976L7.13705 12.5702L15.6105 4.11536L19.0996 7.59675L10.6261 16.0515L6.38938 16.7976Z" fill="black"/>
<path d="M16.1089 3.61802L19.598 7.09941C20.4239 6.27538 20.4239 4.93938 19.598 4.11536L19.0996 3.61802C18.2737 2.79399 16.9348 2.79399 16.1089 3.61802Z" fill="black"/>
</svg>
