<svg width="24" height="24" viewBox="0 0 24 24" fill="none" xmlns="http://www.w3.org/2000/svg">
<g id="fail-circle-outline">
<g id="Vector">
<path d="M16.0932 17L12.0032 12.9062L7.91318 17L7 16.0874L11.0965 12L7 7.9126L7.91318 7L12.0032 11.0938L16.0932 7.00643L17 7.9126L12.91 12L17 16.0874L16.0932 17Z" fill="black"/>
<path fill-rule="evenodd" clip-rule="evenodd" d="M12 20C16.4183 20 20 16.4183 20 12C20 7.58172 16.4183 4 12 4C7.58172 4 4 7.58172 4 12C4 16.4183 7.58172 20 12 20ZM12 22C17.5228 22 22 17.5228 22 12C22 6.47715 17.5228 2 12 2C6.47715 2 2 6.47715 2 12C2 17.5228 6.47715 22 12 22Z" fill="black"/>
</g>
</g>
</svg>
