<svg width="24" height="24" viewBox="0 0 24 24" fill="none" xmlns="http://www.w3.org/2000/svg">
<path fill-rule="evenodd" clip-rule="evenodd" d="M16.1005 4.15743L19.9189 7.9758C20.1532 8.21012 20.1532 8.59002 19.9189 8.82433L16.1005 12.6427C15.8662 12.877 15.4863 12.877 15.252 12.6427C15.0177 12.4084 15.0177 12.0285 15.252 11.7942L18.0461 9.00007H9.69824V7.80007H18.0461L15.252 5.00595C15.0177 4.77164 15.0177 4.39174 15.252 4.15743C15.4863 3.92311 15.8662 3.92311 16.1005 4.15743Z" fill="black"/>
<path fill-rule="evenodd" clip-rule="evenodd" d="M4.37569 14.9471C4.14137 14.7128 4.14137 14.3329 4.37569 14.0986L8.19406 10.2802C8.42838 10.0459 8.80828 10.0459 9.04259 10.2802C9.27691 10.5145 9.27691 10.8944 9.04259 11.1288L6.24848 13.9229H14.5963V15.1229H6.24848L9.04259 17.917C9.27691 18.1513 9.27691 18.5312 9.04259 18.7655C8.80828 18.9998 8.42838 18.9998 8.19406 18.7655L4.37569 14.9471Z" fill="black"/>
</svg>
