<svg width="32" height="32" viewBox="0 0 32 32" fill="none" xmlns="http://www.w3.org/2000/svg">
<path fill-rule="evenodd" clip-rule="evenodd" d="M21.7531 2.36344C22.2037 2.77824 22.3494 3.44814 22.1148 4.02588L18.4172 13.1306L23.6441 10.4402L24.875 13.0538L16.2853 17.4752C15.763 17.744 15.1358 17.645 14.7127 17.2268C14.2896 16.8086 14.1599 16.1594 14.3875 15.5991L17.9094 6.92691L12.738 10.0826L11.3333 7.56668L20.13 2.19864C20.6485 1.88223 21.3026 1.94864 21.7531 2.36344Z" fill="#6DB8BB"/>
<path fill-rule="evenodd" clip-rule="evenodd" d="M11.8168 15.8325C12.198 16.1643 12.3213 16.7003 12.1228 17.1625L8.99409 24.4463L13.4168 22.2939L14.4583 24.3848L7.19018 27.9219C6.74818 28.137 6.21747 28.0577 5.85948 27.7232C5.50149 27.3886 5.39173 26.8693 5.58428 26.421L8.56435 19.4833L4.1886 22.0079L3 19.9951L10.4433 15.7007C10.8821 15.4475 11.4355 15.5007 11.8168 15.8325Z" fill="#6DB8BB"/>
<path fill-rule="evenodd" clip-rule="evenodd" d="M25.5986 18.9333C25.9451 19.2375 26.0573 19.7287 25.8768 20.1524L23.0325 26.8292L27.0532 24.8562L28 26.7728L21.3926 30.0152C20.9908 30.2124 20.5083 30.1397 20.1828 29.833C19.8574 29.5264 19.7576 29.0503 19.9327 28.6394L22.6418 22.2798L18.6639 24.594L17.5833 22.749L24.35 18.8124C24.7488 18.5804 25.252 18.6291 25.5986 18.9333Z" fill="#6DB8BB"/>
</svg>
